<?xml version="1.0" standalone="no"?><!DOCTYPE svg PUBLIC "-//W3C//DTD SVG 1.1//EN" "http://www.w3.org/Graphics/SVG/1.1/DTD/svg11.dtd"><svg t="1710917011521" class="icon" viewBox="0 0 1024 1024" version="1.1" xmlns="http://www.w3.org/2000/svg" p-id="34470" xmlns:xlink="http://www.w3.org/1999/xlink" width="128" height="128"><path d="M928 512v32h-192v-32h192zM288 512v32H96v-32h192z m384-128v256a32 32 0 0 1-32 32h-256a32 32 0 0 1-32-32v-256a32 32 0 0 1 32-32h256a32 32 0 0 1 32 32z m-144 535.392h-32v-192h32v192z m0-634.112h-32v-192h32v192z" p-id="34471"></path></svg>
