<?xml version="1.0" standalone="no"?><!DOCTYPE svg PUBLIC "-//W3C//DTD SVG 1.1//EN" "http://www.w3.org/Graphics/SVG/1.1/DTD/svg11.dtd"><svg t="1710900944631" class="icon" viewBox="0 0 1024 1024" version="1.1" xmlns="http://www.w3.org/2000/svg" p-id="4586" xmlns:xlink="http://www.w3.org/1999/xlink" width="128" height="128"><path d="M512 384a42.666667 42.666667 0 0 1-34.56-17.92l-213.333333-298.666667a42.666667 42.666667 0 0 1-3.413334-42.666666A42.666667 42.666667 0 0 1 298.666667 0h426.666666a42.666667 42.666667 0 0 1 37.973334 23.04 42.666667 42.666667 0 0 1-3.413334 42.666667l-213.333333 298.666666A42.666667 42.666667 0 0 1 512 384zM381.44 85.333333L512 267.946667 642.56 85.333333zM725.333333 1024H298.666667a42.666667 42.666667 0 0 1-34.56-67.413333l213.333333-298.666667a42.666667 42.666667 0 0 1 69.12 0l213.333333 298.666667A42.666667 42.666667 0 0 1 725.333333 1024z m-343.893333-85.333333h261.12L512 756.053333zM938.666667 554.666667H85.333333a42.666667 42.666667 0 0 1 0-85.333334h853.333334a42.666667 42.666667 0 0 1 0 85.333334z" p-id="4587"></path></svg>
