<?xml version="1.0" standalone="no"?><!DOCTYPE svg PUBLIC "-//W3C//DTD SVG 1.1//EN" "http://www.w3.org/Graphics/SVG/1.1/DTD/svg11.dtd"><svg t="1710210006796" class="icon" viewBox="0 0 1024 1024" version="1.1" xmlns="http://www.w3.org/2000/svg" p-id="3320" xmlns:xlink="http://www.w3.org/1999/xlink" width="128" height="128"><path d="M512 1024C229.24 1024 0 794.76 0 512S229.24 0 512 0s512 229.24 512 512-229.24 512-512 512z m259.168-568.888l-290.768 0.016a25.28 25.28 0 0 0-25.28 25.264l-0.024 63.208a25.28 25.28 0 0 0 25.264 25.304h177.04a25.264 25.264 0 0 1 25.264 25.28v12.632a75.84 75.84 0 0 1-75.84 75.84H366.608a25.28 25.28 0 0 1-25.296-25.248V417.2a75.848 75.848 0 0 1 75.856-75.856l353.92-0.016a25.28 25.28 0 0 0 25.296-25.264l0.072-63.192a25.304 25.304 0 0 0-25.28-25.296l-353.992 0.008c-104.72-0.008-189.624 84.896-189.624 189.616v353.96a25.28 25.28 0 0 0 25.28 25.296h372.936c94.272 0 170.688-76.408 170.688-170.688V480.392a25.28 25.28 0 0 0-25.296-25.264v-0.016z" p-id="3321"></path></svg>
