<?xml version="1.0" standalone="no"?><!DOCTYPE svg PUBLIC "-//W3C//DTD SVG 1.1//EN" "http://www.w3.org/Graphics/SVG/1.1/DTD/svg11.dtd"><svg t="1710916069688" class="icon" viewBox="0 0 1024 1024" version="1.1" xmlns="http://www.w3.org/2000/svg" p-id="3183" xmlns:xlink="http://www.w3.org/1999/xlink" width="128" height="128"><path d="M512 64c160 0 304 83.2 384 217.6L896 256c0-19.2 12.8-32 32-32s32 12.8 32 32l0 128c0 19.2-12.8 32-32 32l-128 0c-19.2 0-32-12.8-32-32s12.8-32 32-32l60.8 0c-64-137.6-198.4-224-348.8-224C300.8 128 128 300.8 128 512s172.8 384 384 384c153.6 0 294.4-92.8 352-233.6 6.4-16 25.6-22.4 41.6-16 16 6.4 22.4 25.6 16 41.6C854.4 854.4 691.2 960 512 960 265.6 960 64 758.4 64 512S265.6 64 512 64z" p-id="3184"></path></svg>
