<?xml version="1.0" standalone="no"?><!DOCTYPE svg PUBLIC "-//W3C//DTD SVG 1.1//EN" "http://www.w3.org/Graphics/SVG/1.1/DTD/svg11.dtd"><svg t="1710916176192" class="icon" viewBox="0 0 1024 1024" version="1.1" xmlns="http://www.w3.org/2000/svg" p-id="1462" xmlns:xlink="http://www.w3.org/1999/xlink" width="128" height="128"><path d="M512 64C352 64 208 147.2 128 281.6L128 256c0-19.2-12.8-32-32-32S64 236.8 64 256l0 128c0 19.2 12.8 32 32 32l128 0c19.2 0 32-12.8 32-32s-12.8-32-32-32L163.2 352c64-137.6 198.4-224 348.8-224 211.2 0 384 172.8 384 384s-172.8 384-384 384c-153.6 0-294.4-92.8-352-233.6-6.4-16-25.6-22.4-41.6-16-16 6.4-22.4 25.6-16 41.6C169.6 854.4 332.8 960 512 960c246.4 0 448-201.6 448-448S758.4 64 512 64z" p-id="1463"></path></svg>
