<?xml version="1.0" standalone="no"?><!DOCTYPE svg PUBLIC "-//W3C//DTD SVG 1.1//EN" "http://www.w3.org/Graphics/SVG/1.1/DTD/svg11.dtd"><svg t="1719280591593" class="icon" viewBox="0 0 1024 1024" version="1.1" xmlns="http://www.w3.org/2000/svg" p-id="1863" xmlns:xlink="http://www.w3.org/1999/xlink" width="128" height="128"><path d="M819.2 64.8H200.8c-76 0-137.6 61.6-137.6 137.6v618.4c0 76 61.6 137.6 137.6 137.6h618.4c76 0 137.6-61.6 137.6-137.6V202.4c0-76-61.6-137.6-137.6-137.6z m40 476.8H774.4c-12 0-22.4-7.2-27.2-18.4l-25.6-65.6-136 344.8c-4.8 11.2-15.2 18.4-27.2 18.4-0.8 0-2.4 0-3.2-0.8-13.6-1.6-23.2-12-24.8-25.6l-60-447.2-100 255.2c-4 8.8-10.4 15.2-19.2 17.6s-18.4 0.8-25.6-4.8l-97.6-77.6h-67.2c-16 0-28.8-13.6-28.8-29.6s12.8-29.6 28.8-29.6h76.8c6.4 0 12.8 2.4 17.6 6.4l74.4 60L456 220.8c4.8-12 17.6-20 30.4-18.4 13.6 1.6 23.2 12 24.8 25.6l60.8 448 122.4-309.6c4.8-11.2 15.2-18.4 27.2-18.4s22.4 8 27.2 19.2l44.8 115.2h64.8c16 0 29.6 13.6 29.6 29.6 0.8 16-12.8 29.6-28.8 29.6z" p-id="1864"></path></svg>
