<?xml version="1.0" standalone="no"?><!DOCTYPE svg PUBLIC "-//W3C//DTD SVG 1.1//EN" "http://www.w3.org/Graphics/SVG/1.1/DTD/svg11.dtd"><svg t="1720055712879" class="icon" viewBox="0 0 1024 1024" version="1.1" xmlns="http://www.w3.org/2000/svg" p-id="4927" xmlns:xlink="http://www.w3.org/1999/xlink" width="128" height="128"><path d="M727.8434448242188 698.4102478027344h-13.081420898437498l-183.95748138427734-446.4034881591798c-3.2703552246093746-7.358299255371094-10.628654479980469-12.263832092285154-18.804542541503906-12.263832092285154s-15.534187316894528 4.905532836914062-18.804542541503906 12.263832092285154L310.0555648803711 698.4102478027344h-13.899009704589844c-8.175888061523438 0-15.534187316894528 4.087944030761719-17.98695373535156 11.446243286132812-5.723121643066406 14.716598510742188 4.905532836914062 28.61560821533203 18.804542541503906 28.61560821533203h58.86639404296875c9.811065673828123 0 18.804542541503906-6.540710449218749 20.439720153808594-16.351776123046875 1.6351776123046873-10.628654479980469-5.723121643066406-20.439720153808594-16.351776123046875-22.074897766113278l37.60908508300781-90.75235748291016h165.15293884277344l35.97390747070312 90.75235748291016c-9.811065673828123 1.6351776123046873-17.98695373535156 10.628654479980469-16.351776123046875 22.074897766113278 1.6351776123046873 9.811065673828123 10.628654479980469 16.351776123046875 20.439720153808594 16.351776123046875h125.0910873413086c8.175888061523438 0 15.534187316894528-4.087944030761719 17.98695373535156-11.446243286132812 6.540710449218749-14.716598510742188-4.087944030761719-28.61560821533203-17.98695373535156-28.61560821533203zM411.4365768432617 568.4136276245117l67.04228210449219-163.51776123046875 67.04228210449219 163.51776123046875H411.4365768432617zM156.34886932373047 485.0195693969727c0 6.540710449218749 5.723121643066406 12.263832092285154 12.263832092285154 12.263832092285154s12.263832092285154-5.723121643066406 12.263832092285154-12.263832092285154v-24.52766418457031c0-6.540710449218749-5.723121643066406-12.263832092285154-12.263832092285154-12.263832092285154s-12.263832092285154 5.723121643066406-12.263832092285154 12.263832092285154v24.52766418457031z m0-78.48852539062499c0 6.540710449218749 5.723121643066406 12.263832092285154 12.263832092285154 12.263832092285154s12.263832092285154-5.723121643066406 12.263832092285154-12.263832092285154v-24.52766418457031c0-6.540710449218749-5.723121643066406-12.263832092285154-12.263832092285154-12.263832092285154s-12.263832092285154 5.723121643066406-12.263832092285154 12.263832092285154v24.52766418457031z m0 156.97705078124997c0 6.540710449218749 5.723121643066406 12.263832092285154 12.263832092285154 12.263832092285154s12.263832092285154-5.723121643066406 12.263832092285154-12.263832092285154v-24.52766418457031c0-6.540710449218749-5.723121643066406-12.263832092285154-12.263832092285154-12.263832092285154s-12.263832092285154 5.723121643066406-12.263832092285154 12.263832092285154v24.52766418457031z m12.263832092285154-224.01933288574222c6.540710449218749 0 12.263832092285154-5.723121643066406 12.263832092285154-12.263832092285154v-24.52766418457031c-0.8175888061523436-6.540710449218749-5.723121643066406-11.446243286132812-12.263832092285154-11.446243286132812s-12.263832092285154 5.723121643066406-12.263832092285154 12.263832092285154v24.52766418457031c0 6.540710449218749 4.905532836914062 11.446243286132812 12.263832092285154 11.446243286132812z m-12.263832092285154 302.5078582763672c0 6.540710449218749 5.723121643066406 12.263832092285154 12.263832092285154 12.263832092285154s12.263832092285154-5.723121643066406 12.263832092285154-12.263832092285154v-24.52766418457031c0-6.540710449218749-5.723121643066406-12.263832092285154-12.263832092285154-12.263832092285154s-12.263832092285154 5.723121643066406-12.263832092285154 12.263832092285154v24.52766418457031z m0 78.48852539062499c0 7.358299255371094 4.905532836914062 12.263832092285154 12.263832092285154 12.263832092285154 6.540710449218749 0 12.263832092285154-5.723121643066406 12.263832092285154-12.263832092285154V695.9574813842773c0-6.540710449218749-5.723121643066406-12.263832092285154-12.263832092285154-12.263832092285154s-12.263832092285154 5.723121643066406-12.263832092285154 12.263832092285154v24.52766418457031z m687.5921859741211-235.465576171875c0 6.540710449218749 5.723121643066406 12.263832092285154 12.263832092285154 12.263832092285154s12.263832092285154-5.723121643066406 12.263832092285154-12.263832092285154v-24.52766418457031c0-6.540710449218749-5.723121643066406-12.263832092285154-12.263832092285154-12.263832092285154s-12.263832092285154 5.723121643066406-12.263832092285154 12.263832092285154v24.52766418457031z m0-78.48852539062499c0 6.540710449218749 5.723121643066406 12.263832092285154 12.263832092285154 12.263832092285154s12.263832092285154-5.723121643066406 12.263832092285154-12.263832092285154v-24.52766418457031c0-6.540710449218749-5.723121643066406-12.263832092285154-12.263832092285154-12.263832092285154s-12.263832092285154 5.723121643066406-12.263832092285154 12.263832092285154v24.52766418457031z m0 156.97705078124997c0 6.540710449218749 5.723121643066406 12.263832092285154 12.263832092285154 12.263832092285154s12.263832092285154-5.723121643066406 12.263832092285154-12.263832092285154v-24.52766418457031c0-6.540710449218749-5.723121643066406-12.263832092285154-12.263832092285154-12.263832092285154s-12.263832092285154 5.723121643066406-12.263832092285154 12.263832092285154v24.52766418457031z m11.446243286132812-224.01933288574222c6.540710449218749 0 12.263832092285154-5.723121643066406 12.263832092285154-12.263832092285154v-24.52766418457031c0-6.540710449218749-5.723121643066406-12.263832092285154-12.263832092285154-12.263832092285154s-12.263832092285154 5.723121643066406-12.263832092285154 12.263832092285154v24.52766418457031c0.8175888061523436 7.358299255371094 5.723121643066406 12.263832092285154 12.263832092285154 12.263832092285154z m-11.446243286132812 302.5078582763672c0 6.540710449218749 5.723121643066406 12.263832092285154 12.263832092285154 12.263832092285154s12.263832092285154-5.723121643066406 12.263832092285154-12.263832092285154v-24.52766418457031c0-6.540710449218749-5.723121643066406-12.263832092285154-12.263832092285154-12.263832092285154s-12.263832092285154 5.723121643066406-12.263832092285154 12.263832092285154v24.52766418457031z m0 78.48852539062499c0 6.540710449218749 5.723121643066406 12.263832092285154 12.263832092285154 12.263832092285154s12.263832092285154-5.723121643066406 12.263832092285154-12.263832092285154V695.9574813842773c0-6.540710449218749-5.723121643066406-12.263832092285154-12.263832092285154-12.263832092285154s-12.263832092285154 5.723121643066406-12.263832092285154 12.263832092285154v24.52766418457031zM485.0195693969727 843.9410552978516h-24.52766418457031c-6.540710449218749 0-12.263832092285154 5.723121643066406-12.263832092285154 12.263832092285154s5.723121643066406 12.263832092285154 12.263832092285154 12.263832092285154h24.52766418457031c6.540710449218749 0 12.263832092285154-5.723121643066406 12.263832092285154-12.263832092285154s-5.723121643066406-12.263832092285154-12.263832092285154-12.263832092285154z m-78.48852539062499 0h-24.52766418457031c-6.540710449218749 0-12.263832092285154 5.723121643066406-12.263832092285154 12.263832092285154s5.723121643066406 12.263832092285154 12.263832092285154 12.263832092285154h24.52766418457031c6.540710449218749 0 12.263832092285154-5.723121643066406 12.263832092285154-12.263832092285154s-5.723121643066406-12.263832092285154-12.263832092285154-12.263832092285154z m156.97705078124997 0h-24.52766418457031c-6.540710449218749 0-12.263832092285154 5.723121643066406-12.263832092285154 12.263832092285154s5.723121643066406 12.263832092285154 12.263832092285154 12.263832092285154h24.52766418457031c6.540710449218749 0 12.263832092285154-5.723121643066406 12.263832092285154-12.263832092285154s-5.723121643066406-12.263832092285154-12.263832092285154-12.263832092285154z m-236.28316497802737 0h-24.52766418457031c-6.540710449218749 0-12.263832092285154 5.723121643066406-12.263832092285154 12.263832092285154s5.723121643066406 12.263832092285154 12.263832092285154 12.263832092285154h24.52766418457031c6.540710449218749 0 12.263832092285154-5.723121643066406 12.263832092285154-12.263832092285154s-4.905532836914062-12.263832092285154-12.263832092285154-12.263832092285154z m-77.67093658447266-8.175888061523438h-36.79149627685546v-11.446243286132812c0-7.358299255371094-5.723121643066406-13.081420898437498-13.081420898437498-13.081420898437498H180.05894470214838v-39.24426269531249c0-7.358299255371094-5.723121643066406-13.081420898437498-12.263832092285154-13.081420898437498s-12.263832092285154 5.723121643066406-12.263832092285154 13.081420898437498v39.24426269531249H144.90262603759766c-7.358299255371094 0-13.081420898437498 5.723121643066406-13.081420898437498 13.081420898437498v54.77845001220704c0 7.358299255371094 5.723121643066406 13.081420898437498 13.081420898437498 13.081420898437498h54.77845001220704c7.358299255371094 0 13.081420898437498-5.723121643066406 13.081420898437498-13.081420898437498V867.6511306762695h36.79149627685546c7.358299255371094-1.6351776123046873 13.081420898437498-8.175888061523438 13.081420898437498-14.716598510742188 0-7.358299255371094-13.081420898437498-17.16936492919922-13.081420898437498-17.16936492919922z m392.44262695312494 8.175888061523438h-24.52766418457031c-6.540710449218749 0-12.263832092285154 5.723121643066406-12.263832092285154 12.263832092285154s5.723121643066406 12.263832092285154 12.263832092285154 12.263832092285154h24.52766418457031c6.540710449218749 0 12.263832092285154-5.723121643066406 12.263832092285154-12.263832092285154s-5.723121643066406-12.263832092285154-12.263832092285154-12.263832092285154z m78.48852539062499 0H695.9574813842773c-6.540710449218749 0-12.263832092285154 5.723121643066406-12.263832092285154 12.263832092285154s5.723121643066406 12.263832092285154 12.263832092285154 12.263832092285154h24.52766418457031c6.540710449218749 0 12.263832092285154-5.723121643066406 12.263832092285154-12.263832092285154s-4.905532836914062-12.263832092285154-12.263832092285154-12.263832092285154zM460.4919052124023 180.05894470214838h24.52766418457031c6.540710449218749 0 12.263832092285154-5.723121643066406 12.263832092285154-12.263832092285154s-5.723121643066406-12.263832092285154-12.263832092285154-12.263832092285154h-24.52766418457031c-6.540710449218749 0-12.263832092285154 5.723121643066406-12.263832092285154 12.263832092285154s5.723121643066406 12.263832092285154 12.263832092285154 12.263832092285154z m-78.48852539062499 0h24.52766418457031c6.540710449218749 0 12.263832092285154-5.723121643066406 12.263832092285154-12.263832092285154s-5.723121643066406-12.263832092285154-12.263832092285154-12.263832092285154h-24.52766418457031c-6.540710449218749 0-12.263832092285154 5.723121643066406-12.263832092285154 12.263832092285154s5.723121643066406 12.263832092285154 12.263832092285154 12.263832092285154z m156.97705078124997 0h24.52766418457031c6.540710449218749 0 12.263832092285154-5.723121643066406 12.263832092285154-12.263832092285154s-5.723121643066406-12.263832092285154-12.263832092285154-12.263832092285154h-24.52766418457031c-6.540710449218749 0-12.263832092285154 5.723121643066406-12.263832092285154 12.263832092285154s5.723121643066406 12.263832092285154 12.263832092285154 12.263832092285154z m-235.465576171875 0h24.52766418457031c6.540710449218749 0 12.263832092285154-5.723121643066406 12.263832092285154-12.263832092285154s-5.723121643066406-12.263832092285154-12.263832092285154-12.263832092285154h-24.52766418457031c-7.358299255371094 0.8175888061523436-12.263832092285154 5.723121643066406-12.263832092285154 13.081420898437498s4.905532836914062 11.446243286132812 12.263832092285154 11.446243286132812zM248.7364044189453 156.34886932373047h-36.79149627685546V144.90262603759766c0-7.358299255371094-5.723121643066406-13.081420898437498-13.081420898437498-13.081420898437498H144.90262603759766c-7.358299255371094 0-13.081420898437498 5.723121643066406-13.081420898437498 13.081420898437498v54.77845001220704c0 7.358299255371094 5.723121643066406 13.081420898437498 13.081420898437498 13.081420898437498H156.34886932373047v36.79149627685546c1.6351776123046873 7.358299255371094 8.175888061523438 13.081420898437498 14.716598510742188 13.081420898437498s17.16936492919922-13.081420898437498 17.16936492919922-13.081420898437498v-36.79149627685546h11.446243286132812c7.358299255371094 0 13.081420898437498-5.723121643066406 13.081420898437498-13.081420898437498V180.05894470214838h36.79149627685546c6.540710449218749 0 12.263832092285154-5.723121643066406 12.263832092285154-12.263832092285154-0.8175888061523436-6.540710449218749-5.723121643066406-11.446243286132812-13.081420898437498-11.446243286132812z m368.7325515747071 23.71007537841797h24.52766418457031c6.540710449218749 0 12.263832092285154-5.723121643066406 12.263832092285154-12.263832092285154s-5.723121643066406-12.263832092285154-12.263832092285154-12.263832092285154h-24.52766418457031c-6.540710449218749 0-12.263832092285154 5.723121643066406-12.263832092285154 12.263832092285154s5.723121643066406 12.263832092285154 12.263832092285154 12.263832092285154z m79.30611419677736 0h24.52766418457031c6.540710449218749 0 11.446243286132812-4.905532836914062 11.446243286132812-11.446243286132812s-5.723121643066406-12.263832092285154-12.263832092285154-12.263832092285154H695.9574813842773c-6.540710449218749 0-12.263832092285154 5.723121643066406-12.263832092285154 12.263832092285154s5.723121643066406 11.446243286132812 13.081420898437498 11.446243286132812zM879.0973739624022 131.82120513916016h-54.77845001220704c-7.358299255371094 0-13.081420898437498 5.723121643066406-13.081420898437498 13.081420898437498V156.34886932373047h-36.79149627685546c-7.358299255371094 1.6351776123046873-13.081420898437498 8.175888061523438-13.081420898437498 14.716598510742188s13.081420898437498 17.16936492919922 13.081420898437498 17.16936492919922h36.79149627685546v11.446243286132812c0 7.358299255371094 5.723121643066406 13.081420898437498 13.081420898437498 13.081420898437498h19.622131347656246v39.24426269531249c0 7.358299255371094 5.723121643066406 13.081420898437498 12.263832092285154 13.081420898437498s12.263832092285154-5.723121643066406 12.263832092285154-13.081420898437498v-39.24426269531249H879.9149627685547c7.358299255371094 0 13.081420898437498-5.723121643066406 13.081420898437498-13.081420898437498V144.90262603759766c-0.8175888061523436-7.358299255371094-6.540710449218749-13.081420898437498-13.899009704589844-13.081420898437498z m0 679.4162979125977H867.6511306762695v-36.79149627685546c-1.6351776123046873-7.358299255371094-8.175888061523438-13.081420898437498-14.716598510742188-13.081420898437498-7.358299255371094 0-17.16936492919922 13.081420898437498-17.16936492919922 13.081420898437498v36.79149627685546h-11.446243286132812c-7.358299255371094 0-13.081420898437498 5.723121643066406-13.081420898437498 13.081420898437498v19.622131347656246h-36.79149627685546c-6.540710449218749 0-12.263832092285154 5.723121643066406-12.263832092285154 12.263832092285154s5.723121643066406 12.263832092285154 12.263832092285154 12.263832092285154h36.79149627685546V879.9149627685547c0 7.358299255371094 5.723121643066406 13.081420898437498 13.081420898437498 13.081420898437498h54.77845001220704c7.358299255371094 0 13.081420898437498-5.723121643066406 13.081420898437498-13.081420898437498v-54.77845001220704c0-8.175888061523438-5.723121643066406-13.899009704589844-13.081420898437498-13.899009704589844z" p-id="4928"></path></svg>
