<?xml version="1.0" standalone="no"?><!DOCTYPE svg PUBLIC "-//W3C//DTD SVG 1.1//EN" "http://www.w3.org/Graphics/SVG/1.1/DTD/svg11.dtd"><svg t="1720055886698" class="icon" viewBox="0 0 1024 1024" version="1.1" xmlns="http://www.w3.org/2000/svg" p-id="9390" xmlns:xlink="http://www.w3.org/1999/xlink" width="128" height="128"><path d="M960 0h-896a64 64 0 0 0-64 64v896a64 64 0 0 0 64 64h896a64 64 0 0 0 64-64v-896a64 64 0 0 0-64-64z m-21.333333 85.333333v853.333334h-853.333334v-853.333334h853.333334z" p-id="9391"></path><path d="M256 256m21.333333 0l42.666667 0q21.333333 0 21.333333 21.333333l0 128q0 21.333333-21.333333 21.333334l-42.666667 0q-21.333333 0-21.333333-21.333334l0-128q0-21.333333 21.333333-21.333333Z" p-id="9392"></path><path d="M256 256m21.333333 0l469.333334 0q21.333333 0 21.333333 21.333333l0 42.666667q0 21.333333-21.333333 21.333333l-469.333334 0q-21.333333 0-21.333333-21.333333l0-42.666667q0-21.333333 21.333333-21.333333Z" p-id="9393"></path><path d="M384 682.666667m21.333333 0l213.333334 0q21.333333 0 21.333333 21.333333l0 42.666667q0 21.333333-21.333333 21.333333l-213.333334 0q-21.333333 0-21.333333-21.333333l0-42.666667q0-21.333333 21.333333-21.333333Z" p-id="9394"></path><path d="M682.666667 256m21.333333 0l42.666667 0q21.333333 0 21.333333 21.333333l0 128q0 21.333333-21.333333 21.333334l-42.666667 0q-21.333333 0-21.333333-21.333334l0-128q0-21.333333 21.333333-21.333333Z" p-id="9395"></path><path d="M469.333333 256m21.333334 0l42.666666 0q21.333333 0 21.333334 21.333333l0 469.333334q0 21.333333-21.333334 21.333333l-42.666666 0q-21.333333 0-21.333334-21.333333l0-469.333334q0-21.333333 21.333334-21.333333Z" p-id="9396"></path></svg>
