<?xml version="1.0" standalone="no"?><!DOCTYPE svg PUBLIC "-//W3C//DTD SVG 1.1//EN" "http://www.w3.org/Graphics/SVG/1.1/DTD/svg11.dtd"><svg t="1706081945405" class="icon" viewBox="0 0 1024 1024" version="1.1" xmlns="http://www.w3.org/2000/svg" p-id="4371" xmlns:xlink="http://www.w3.org/1999/xlink" width="128" height="128"><path d="M205.184 108.565333a31.765333 31.765333 0 0 0-24.682667-11.669333h-96a32.256 32.256 0 0 0-13.866666 3.157333 31.957333 31.957333 0 0 0 13.866666 60.842667h96a31.872 31.872 0 0 0 28.821334-18.176 31.573333 31.573333 0 0 0 3.178666-13.866667c0-7.402667-2.602667-14.570667-7.317333-20.288z m1.834667 257.877334a32.106667 32.106667 0 0 0-5.034667-5.802667l-1.152-1.002667a31.872 31.872 0 0 0-20.309333-7.338666h-96a31.701333 31.701333 0 0 0-25.578667 12.864l-0.896 1.258666c-1.173333 1.706667-2.176 3.52-3.008 5.44l-0.576 1.450667a32.085333 32.085333 0 0 0 30.058667 43.008h96a31.872 31.872 0 0 0 24.661333-11.669333 31.872 31.872 0 0 0 1.834667-38.208zM180.501333 607.701333h-96a32.085333 32.085333 0 0 0-32 32 32.085333 32.085333 0 0 0 32 32h96c6.528 0 12.885333-2.005333 18.218667-5.738666l1.429333-1.066667a32.256 32.256 0 0 0 10.389334-14.229333 32.064 32.064 0 0 0-30.037334-42.965334z m21.504 263.744l-1.152-1.002666a31.872 31.872 0 0 0-20.309333-7.338667h-96a32.256 32.256 0 0 0-13.888 3.157333l-1.386667 0.704a30.613333 30.613333 0 0 0-6.250666 4.458667 32.021333 32.021333 0 0 0-10.517334 23.658667 32.085333 32.085333 0 0 0 32 32h96c7.424 0 14.613333-2.602667 20.309334-7.338667a32.426667 32.426667 0 0 0 9.728-13.717333 31.936 31.936 0 0 0-8.533334-34.581334z m89.322667-716.928l1.258667 0.896c1.706667 1.173333 3.52 2.176 5.44 3.008l1.450666 0.576c3.52 1.301333 7.253333 1.962667 11.008 1.941334h602.261334a32.021333 32.021333 0 0 0 29.696-43.84l-0.426667-1.002667a32.170667 32.170667 0 0 0-29.312-19.136h-602.24a32.256 32.256 0 0 0-19.157333 6.357333 31.914667 31.914667 0 0 0 0 51.221334v-0.021334z m0 255.381334l1.258667 0.896c1.706667 1.173333 3.52 2.176 5.44 3.008l1.450666 0.576c3.52 1.301333 7.253333 1.962667 11.008 1.941333h602.261334a31.786667 31.786667 0 0 0 25.194666-12.330667l1.066667-1.429333c1.173333-1.685333 2.176-3.477333 3.008-5.354667l0.426667-1.002666a31.744 31.744 0 0 0-6.613334-33.962667l-1.088-1.088c-0.554667-0.533333-1.130667-1.002667-1.706666-1.536a31.957333 31.957333 0 0 0-20.309334-7.338667h-602.24a32.256 32.256 0 0 0-15.253333 3.861334 33.344 33.344 0 0 0-7.338667 5.461333h-0.042666a31.872 31.872 0 0 0 3.477333 48.298667z m258.410667 197.802666H310.485333a32.085333 32.085333 0 0 0-32 32 31.936 31.936 0 0 0 8.832 21.994667l1.088 1.088a37.930667 37.930667 0 0 0 3.861334 3.136l0.832 0.554667 1.6 1.002666c4.8 2.752 10.24 4.202667 15.786666 4.202667h239.253334a32.213333 32.213333 0 0 0 32-32.021333 32.085333 32.085333 0 0 0-32-31.957334z m21.482666 263.744l-1.152-1.002666a31.957333 31.957333 0 0 0-5.098666-3.456c-0.661333-0.362667-1.344-0.682667-2.005334-1.002667s-1.472-0.64-2.24-0.938667a31.253333 31.253333 0 0 0-11.008-1.941333H310.485333a32.085333 32.085333 0 0 0-28.16 47.210667 30.613333 30.613333 0 0 0 4.458667 6.250666c6.058667 6.677333 14.634667 10.496 23.658667 10.517334h239.296c5.312 0 10.56-1.322667 15.210666-3.882667a32.384 32.384 0 0 0 13.610667-14.293333 31.722667 31.722667 0 0 0-7.338667-37.461334z" p-id="4372"></path><path d="M801.856 556.117333l-29.141333 0.746667c-100.074667 7.338667-179.285333 90.688-179.285334 192.64 0 106.794667 86.421333 193.344 193.237334 193.344 101.973333 0 185.216-79.402667 192.597333-179.477333l0.64-29.077334h-178.048v-178.176z m136.554667 208.554667c-6.72 82.496-72.213333 139.477333-152.128 139.477333a152.874667 152.874667 0 0 1-152.832-152.853333c0-79.914667 57.066667-145.450667 139.541333-152.192v165.568h165.418667z m-121.728-237.184v192h191.872c0-103.701333-88.149333-192-191.872-192z" p-id="4373"></path></svg>
