<?xml version="1.0" standalone="no"?><!DOCTYPE svg PUBLIC "-//W3C//DTD SVG 1.1//EN" "http://www.w3.org/Graphics/SVG/1.1/DTD/svg11.dtd"><svg t="1709106078773" class="icon" viewBox="0 0 1024 1024" version="1.1" xmlns="http://www.w3.org/2000/svg" p-id="2333" xmlns:xlink="http://www.w3.org/1999/xlink" width="128" height="128"><path d="M728.4 954.5H293.2c-39.1 0-71-33.6-71.6-75.2l-69-676.1H869l-69 676.1c-0.7 41.6-32.5 75.2-71.6 75.2zM204.1 249.8l64 627.1v1.2c0 16.5 11.3 29.9 25.1 29.9h435.2c13.8 0 25.1-13.4 25.1-29.9l0.1-2.4 63.9-625.9H204.1z" p-id="2334"></path><path d="M716.9 243.1H304.7c-27.5 0-49.9-22.4-49.9-49.9v-79.8c0-27.5 22.4-49.9 49.9-49.9h412.2c27.5 0 49.9 22.4 49.9 49.9v79.8c-0.1 27.6-22.4 49.9-49.9 49.9zM304.7 110.2c-1.8 0-3.3 1.5-3.3 3.3v79.8c0 1.8 1.5 3.3 3.3 3.3h412.2c1.8 0 3.3-1.5 3.3-3.3v-79.8c0-1.8-1.5-3.3-3.3-3.3H304.7z" p-id="2335"></path><path d="M938.5 249.8h-851c-12.8 0-23.3-10.4-23.3-23.3s10.4-23.3 23.3-23.3h851c12.8 0 23.3 10.4 23.3 23.3s-10.5 23.3-23.3 23.3zM421 834.8c-12.8 0-23.3-10.4-23.3-23.3V346.2c0-12.9 10.4-23.3 23.3-23.3 12.8 0 23.3 10.4 23.3 23.3v465.4c0 12.8-10.4 23.2-23.3 23.2zM600.5 834.8c-12.8 0-23.3-10.4-23.3-23.3V346.2c0-12.9 10.4-23.3 23.3-23.3s23.3 10.4 23.3 23.3v465.4c0 12.8-10.4 23.2-23.3 23.2z" p-id="2336"></path></svg>
