<?xml version="1.0" standalone="no"?><!DOCTYPE svg PUBLIC "-//W3C//DTD SVG 1.1//EN" "http://www.w3.org/Graphics/SVG/1.1/DTD/svg11.dtd"><svg t="1706778199602" class="icon" viewBox="0 0 1024 1024" version="1.1" xmlns="http://www.w3.org/2000/svg" p-id="1511" xmlns:xlink="http://www.w3.org/1999/xlink" width="128" height="128"><path d="M298.666667 321.28l123.733333 124.586667a53.76 53.76 0 0 0-76.373333 0l100.266666 99.84-179.2 179.2a500.48 500.48 0 0 0-42.666666 73.813333 529.493333 529.493333 0 0 0 73.386666-42.666667l180.906667-181.333333 100.266667 99.84a54.186667 54.186667 0 0 0 0-75.093333l118.186666 118.186666 27.306667-27.306666-396.8-396.8z m308.906666-98.133333l-18.346666 18.773333a27.733333 27.733333 0 0 0 0 39.68l18.773333 18.346667-122.88 98.133333 140.8 140.8L725.333333 415.146667l18.773334 18.346666a27.733333 27.733333 0 0 0 39.68 0l18.346666-18.773333z" p-id="1512"></path></svg>
