<?xml version="1.0" standalone="no"?><!DOCTYPE svg PUBLIC "-//W3C//DTD SVG 1.1//EN" "http://www.w3.org/Graphics/SVG/1.1/DTD/svg11.dtd"><svg t="1708268208745" class="icon" viewBox="0 0 1024 1024" version="1.1" xmlns="http://www.w3.org/2000/svg" p-id="15927" xmlns:xlink="http://www.w3.org/1999/xlink" width="128" height="128"><path d="M728.490667 1005.568h-215.893334l12.714667-45.738667c2.986667-10.496 4.266667-19.029333 4.266667-26.965333a101.034667 101.034667 0 0 0-201.898667 0c0 7.936 1.28 16.469333 4.266667 26.965333l12.629333 45.738667h-215.893333a107.264 107.264 0 0 1-107.178667-107.178667v-214.186666l44.970667 11.605333c9.557333 2.56 17.493333 3.669333 24.917333 3.669333a101.034667 101.034667 0 0 0 0-201.984c-7.424 0-15.36 1.109333-24.917333 3.584l-44.970667 11.605334v-214.186667c0-59.050667 48.042667-107.178667 107.178667-107.178667H255.146667c0.853333-94.72 78.336-171.52 173.226666-171.52 94.976 0 172.373333 76.8 173.226667 171.52h126.72c59.050667 0 107.093333 48.128 107.093333 107.178667v126.72a173.482667 173.482667 0 0 1 169.045334 173.141333 173.397333 173.397333 0 0 1-168.96 173.141334v126.805333a107.093333 107.093333 0 0 1-107.093334 107.264z m-126.634667-72.277333h126.634667a34.986667 34.986667 0 0 0 34.901333-34.901334V685.653333l44.544 10.581334a102.4 102.4 0 0 0 23.381333 3.242666 101.034667 101.034667 0 0 0 0-201.984c-7.168 0-14.506667 0.938667-23.381333 3.157334l-44.544 10.581333V298.496a34.986667 34.986667 0 0 0-34.986667-34.901333H514.133333l11.776-45.056c2.56-9.813333 3.754667-17.834667 3.754667-25.344a100.949333 100.949333 0 0 0-201.898667 0c0 7.509333 1.024 15.616 3.669334 25.344l11.776 45.056H128.682667a34.986667 34.986667 0 0 0-34.901334 34.901333v126.634667a173.397333 173.397333 0 0 1 170.922667 173.226666A173.482667 173.482667 0 0 1 93.866667 771.584v126.72a34.986667 34.986667 0 0 0 34.901333 34.901333H255.146667v-0.426666c0-95.573333 77.653333-173.226667 173.226666-173.226667a173.397333 173.397333 0 0 1 173.397334 173.738667z" p-id="15928"></path></svg>
