<?xml version="1.0" standalone="no"?><!DOCTYPE svg PUBLIC "-//W3C//DTD SVG 1.1//EN" "http://www.w3.org/Graphics/SVG/1.1/DTD/svg11.dtd"><svg t="1720074154812" class="icon" viewBox="0 0 1024 1024" version="1.1" xmlns="http://www.w3.org/2000/svg" p-id="2407" xmlns:xlink="http://www.w3.org/1999/xlink" width="128" height="128"><path d="M263.2 761.3H145.4c-45.5 0-82.5-37-82.5-82.5V150.6c0-45.5 37-82.5 82.5-82.5h488.9c45.5 0 82.5 37 82.5 82.5v70.1c0 11-9 20-20 20s-20-9-20-20v-70.1c0-23.4-19-42.5-42.5-42.5H145.4c-23.4 0-42.5 19-42.5 42.5v528.3c0 23.4 19 42.5 42.5 42.5h117.8c11 0 20 9 20 20s-8.9 19.9-20 19.9z" p-id="2408"></path><path d="M897.2 971.1H400.9c-42.5 0-77.2-34.6-77.2-77.2V358.4c0-42.5 34.6-77.2 77.2-77.2h496.4c42.5 0 77.2 34.6 77.2 77.2V894c-0.1 42.5-34.7 77.1-77.3 77.1zM400.9 321.2c-20.5 0-37.2 16.7-37.2 37.2V894c0 20.5 16.7 37.2 37.2 37.2h496.4c20.5 0 37.2-16.7 37.2-37.2V358.4c0-20.5-16.7-37.2-37.2-37.2H400.9z" p-id="2409"></path></svg>
