<?xml version="1.0" standalone="no"?><!DOCTYPE svg PUBLIC "-//W3C//DTD SVG 1.1//EN" "http://www.w3.org/Graphics/SVG/1.1/DTD/svg11.dtd"><svg t="1708267587632" class="icon" viewBox="0 0 1024 1024" version="1.1" xmlns="http://www.w3.org/2000/svg" p-id="9694" xmlns:xlink="http://www.w3.org/1999/xlink" width="128" height="128"><path d="M227.555556 341.333333m14.222222 0l0 0q14.222222 0 14.222222 14.222223l0 142.222222q0 14.222222-14.222222 14.222222l0 0q-14.222222 0-14.222222-14.222222l0-142.222222q0-14.222222 14.222222-14.222223Z" p-id="9695"></path><path d="M818.164077 543.548894m10.05663 10.05663l0 0q10.05663 10.05663 0 20.113259l-140.792817 140.792817q-10.05663 10.05663-20.113259 0l0 0q-10.05663-10.05663 0-20.113259l140.792816-140.792817q10.05663-10.05663 20.11326 0Z" p-id="9696"></path><path d="M818.325218 624.117967m10.05663 10.056629l0 0q10.05663 10.05663 0 20.11326l-60.339779 60.339779q-10.05663 10.05663-20.113259 0l0 0q-10.05663-10.05663 0-20.11326l60.339779-60.339779q10.05663-10.05663 20.113259 0Z" p-id="9697"></path><path d="M824.888889 227.555556H199.111111a85.333333 85.333333 0 0 0-85.333333 85.333333v398.222222a85.333333 85.333333 0 0 0 85.333333 85.333333h625.777778a85.333333 85.333333 0 0 0 85.333333-85.333333V312.888889a85.333333 85.333333 0 0 0-85.333333-85.333333z m28.444444 469.333333a42.666667 42.666667 0 0 1-42.666666 42.666667h-597.333334A42.666667 42.666667 0 0 1 170.666667 696.888889v-369.777778A42.666667 42.666667 0 0 1 213.333333 284.444444h597.333334a42.666667 42.666667 0 0 1 42.666666 42.666667z" p-id="9698"></path></svg>
