<?xml version="1.0" standalone="no"?><!DOCTYPE svg PUBLIC "-//W3C//DTD SVG 1.1//EN" "http://www.w3.org/Graphics/SVG/1.1/DTD/svg11.dtd"><svg t="1677249368597" class="icon" viewBox="0 0 1024 1024" version="1.1" xmlns="http://www.w3.org/2000/svg" p-id="1269" xmlns:xlink="http://www.w3.org/1999/xlink" width="128" height="128"><path d="M832 0a64 64 0 0 1 63.701333 57.856l0.298667 6.144v405.418667a42.666667 42.666667 0 0 1-85.034667 4.992l-0.298666-4.992V85.333333h-682.666667v853.333334h298.666667a42.666667 42.666667 0 0 1 42.368 37.674666l0.298666 4.992a42.666667 42.666667 0 0 1-37.674666 42.368L426.666667 1024h-320a64 64 0 0 1-63.701334-57.856l-0.298666-6.144v-896a64 64 0 0 1 57.856-63.701333l6.144-0.298667h725.333333z" fill="#515151" p-id="1270"></path><path d="M746.666667 810.666667m-64 0a64 64 0 1 0 128 0 64 64 0 1 0-128 0Z" fill="#515151" p-id="1271"></path><path d="M867.626667 597.333333h-241.92l-119.978667 213.333334 119.978667 213.333333h241.92l119.978666-213.333333-119.978666-213.333334z m-49.92 85.333334l71.978666 128-72.021333 128H675.626667L603.605333 810.666667l71.978667-128h142.122667z" fill="#515151" p-id="1272"></path><path d="M85.333333 768m42.666667 0l256 0q42.666667 0 42.666667 42.666667l0 0q0 42.666667-42.666667 42.666666l-256 0q-42.666667 0-42.666667-42.666666l0 0q0-42.666667 42.666667-42.666667Z" fill="#515151" p-id="1273"></path><path d="M429.610667 250.453333a63.786667 63.786667 0 0 1 115.882666 0l90.666667 198.570667a42.666667 42.666667 0 1 1-77.653333 35.413333l-70.954667-155.434666-150.058667 328.704a42.666667 42.666667 0 0 1-51.882666 22.912l-4.693334-1.792a42.666667 42.666667 0 0 1-22.869333-51.882667l1.792-4.693333 169.770667-371.754667z" fill="#515151" p-id="1274"></path><path d="M298.666667 512m42.666666 0l128 0q42.666667 0 42.666667 42.666667l0 0q0 42.666667-42.666667 42.666666l-128 0q-42.666667 0-42.666666-42.666666l0 0q0-42.666667 42.666666-42.666667Z" fill="#515151" p-id="1275"></path></svg>