<?xml version="1.0" standalone="no"?><!DOCTYPE svg PUBLIC "-//W3C//DTD SVG 1.1//EN" "http://www.w3.org/Graphics/SVG/1.1/DTD/svg11.dtd"><svg t="1682919362241" class="icon" viewBox="0 0 1088 1024" version="1.1" xmlns="http://www.w3.org/2000/svg" p-id="15930" xmlns:xlink="http://www.w3.org/1999/xlink" width="136" height="128"><path d="M572.48 19.2c-282.368 0-512 201.216-512 448.576 0 146.88 82.304 284.544 220.288 368.32v141.44c0 9.984 5.44 19.2 14.272 23.872a26.688 26.688 0 0 0 27.712-1.152l64.896-43.072a20.736 20.736 0 0 0 3.2-2.368l73.28-49.152a584.256 584.256 0 0 0 108.416 10.496c282.24-0.064 511.936-201.216 511.936-448.448 0-247.296-229.632-448.512-512-448.512zM109.248 466.944c0-218.432 207.808-396.16 463.232-396.16 255.424 0 463.232 177.728 463.232 396.16 0 218.368-207.872 396.096-463.232 396.096a542.912 542.912 0 0 1-109.952-11.648 26.752 26.752 0 0 0-20.736 3.968l-86.848 57.856a21.376 21.376 0 0 0-2.944 2.176l-19.84 13.056v-106.88a27.52 27.52 0 0 0-13.952-23.872c-130.944-73.6-208.96-197.312-208.96-330.752z m292.352-28.8a61.44 61.44 0 1 1-122.88 0.064 61.44 61.44 0 0 1 122.88 0m232.32-0.192a61.44 61.44 0 1 1-122.88 0.32 61.44 61.44 0 0 1 122.88-0.32m232.32 0.064a61.44 61.44 0 1 1-122.88 0.192 61.44 61.44 0 0 1 122.88-0.192" p-id="15931"></path></svg>
