<?xml version="1.0" standalone="no"?><!DOCTYPE svg PUBLIC "-//W3C//DTD SVG 1.1//EN" "http://www.w3.org/Graphics/SVG/1.1/DTD/svg11.dtd"><svg t="1708268077617" class="icon" viewBox="0 0 1024 1024" version="1.1" xmlns="http://www.w3.org/2000/svg" p-id="10721" xmlns:xlink="http://www.w3.org/1999/xlink" width="128" height="128"><path d="M64 320v352h896V320H64zM32 288h960v416H32V288z" p-id="10722"></path><path d="M304 288c9.6 0 16 6.4 16 16v384c0 9.6-6.4 16-16 16s-16-6.4-16-16v-384c0-9.6 6.4-16 16-16zM560 582.4H448v-22.4h44.8v-147.2l-44.8 12.8v-22.4l70.4-19.2v176h41.6zM720 288c9.6 0 16 6.4 16 16v384c0 9.6-6.4 16-16 16s-16-6.4-16-16v-384c0-9.6 6.4-16 16-16zM96 480h160v32H96zM864 480h64v32h-64v64h-32v-64h-64v-32h64v-64h32v64z" p-id="10723"></path></svg>
