<?xml version="1.0" standalone="no"?><!DOCTYPE svg PUBLIC "-//W3C//DTD SVG 1.1//EN" "http://www.w3.org/Graphics/SVG/1.1/DTD/svg11.dtd"><svg t="1706081913895" class="icon" viewBox="0 0 1024 1024" version="1.1" xmlns="http://www.w3.org/2000/svg" p-id="3206" xmlns:xlink="http://www.w3.org/1999/xlink" width="128" height="128"><path d="M914.4 558.4 339.2 558.4c-32 0-57.6-25.6-57.6-57.6s25.6-57.6 57.6-57.6l574.4 0c32 0 57.6 25.6 57.6 57.6S946.4 558.4 914.4 558.4zM914.4 270.4 339.2 270.4c-32 0-57.6-25.6-57.6-57.6s25.6-57.6 57.6-57.6l574.4 0c32 0 57.6 25.6 57.6 57.6S946.4 270.4 914.4 270.4zM109.6 845.6c-32 0-57.6-25.6-57.6-57.6 0-32 25.6-57.6 57.6-57.6 32 0 57.6 25.6 57.6 57.6C167.2 820 141.6 845.6 109.6 845.6zM109.6 558.4c-32 0-57.6-25.6-57.6-57.6s25.6-57.6 57.6-57.6c32 0 57.6 25.6 57.6 57.6S141.6 558.4 109.6 558.4zM109.6 270.4c-32 0-57.6-25.6-57.6-57.6s25.6-57.6 57.6-57.6c32 0 57.6 25.6 57.6 57.6S141.6 270.4 109.6 270.4zM339.2 730.4l574.4 0c32 0 57.6 25.6 57.6 57.6 0 32-25.6 57.6-57.6 57.6L339.2 845.6c-32 0-57.6-25.6-57.6-57.6C282.4 756 308 730.4 339.2 730.4z" p-id="3207"></path></svg>
