<?xml version="1.0" standalone="no"?><!DOCTYPE svg PUBLIC "-//W3C//DTD SVG 1.1//EN" "http://www.w3.org/Graphics/SVG/1.1/DTD/svg11.dtd"><svg t="1680123875789" class="icon" viewBox="0 0 1024 1024" version="1.1" xmlns="http://www.w3.org/2000/svg" p-id="1822" xmlns:xlink="http://www.w3.org/1999/xlink" width="128" height="128"><path d="M394.837019 987.616006h-231.499961A113.949981 113.949981 0 0 1 46.190077 876.864024V110.798152A113.949981 113.949981 0 0 1 163.338058 0.04617H730.289964a113.949981 113.949981 0 0 1 115.549981 110.751982V449.450095a39.982993 39.982993 0 0 1-77.966987 0V110.798152a39.982993 39.982993 0 0 0-39.981994-36.783994H163.338058a39.982993 39.982993 0 0 0-39.982993 36.783994v766.065872a39.982993 39.982993 0 0 0 39.982993 37.183994h231.498961a36.783994 36.783994 0 1 1 0 73.567988z" p-id="1823"></path><path d="M632.33298 285.922123H262.494041a36.783994 36.783994 0 1 1 0-73.567988h369.839939a36.783994 36.783994 0 1 1 0 73.567988z m0 187.517968H262.494041a36.783994 36.783994 0 1 1 0-73.567987h369.839939a36.783994 36.783994 0 1 1 0 73.567987z m344.649943 273.080955c0-21.189996-13.993998-31.985995-37.183994-33.984994a47.979992 47.979992 0 0 1-47.179992-58.774991c8.796999-39.981993 6.797999-45.579992-30.785995-66.369989l-23.989996-13.194997a51.177992 51.177992 0 0 0-71.567988 5.996999c-27.587995 21.590996-39.982993 21.190996-66.370989 0a51.177992 51.177992 0 0 0-71.568988-6.796999l-39.982994 21.989996a37.583994 37.583994 0 0 0-19.590996 47.579992c12.394998 39.982993-5.597999 65.571989-48.778992 69.969989-17.991997 1.999-29.986995 11.594998-30.785995 27.587995a749.672876 749.672876 0 0 0 0 94.757984c0 20.390997 13.593998 30.786995 35.983994 32.785995a49.178992 49.178992 0 0 1 48.778992 57.57499c-7.996999 41.981993-7.996999 46.379992 31.985994 67.969989 8.395999 4.797999 16.791997 9.995998 25.588996 14.393998a48.778992 48.778992 0 0 0 64.371989-8.395999c30.785995-26.388996 39.981993-25.988996 72.367988 0a388.229936 388.229936 0 0 0 39.982994 23.189996c29.186995-18.391997 57.97399-34.384994 83.962986-53.576991a35.583994 35.583994 0 0 0 3.597999-31.585995c-14.792998-35.984994 8.796999-67.569989 50.377992-71.569988 17.192997 0 28.787995-10.793998 29.587995-25.987995a831.237862 831.237862 0 0 0 1.199-93.558985zM731.889963 885.661023a96.357984 96.357984 0 1 1 96.357984-96.358984 95.957984 95.957984 0 0 1-96.357984 96.357984zM223.312048 587.390072h260.285957v73.967988H223.312048V587.390072z" p-id="1824"></path></svg>
