<?xml version="1.0" standalone="no"?><!DOCTYPE svg PUBLIC "-//W3C//DTD SVG 1.1//EN" "http://www.w3.org/Graphics/SVG/1.1/DTD/svg11.dtd"><svg t="1682919134794" class="icon" viewBox="0 0 1024 1024" version="1.1" xmlns="http://www.w3.org/2000/svg" p-id="8875" xmlns:xlink="http://www.w3.org/1999/xlink" width="128" height="128"><path d="M167.256328 346.969363c-40.536228 0-73.515341 32.738635-73.515341 72.980151l0 242.830561c0 40.536228 32.979112 73.516364 73.515341 73.516364 19.674085 0 38.068014-7.664563 51.794643-21.582551 13.634532-13.824867 21.144576-32.267914 21.144576-51.933813l0-242.830561C240.195547 379.707998 207.475332 346.969363 167.256328 346.969363zM209.496361 662.781098c0 24.009833-18.553565 42.817178-42.240033 42.817178-23.608697 0-42.816155-19.208481-42.816155-42.817178l0-242.830561c0-23.313985 19.207457-42.280966 42.816155-42.280966 23.291472 0 42.240033 18.96698 42.240033 42.280966L209.496361 662.781098zM680.167071 113.703645l32.763195-60.446697c2.967588-5.28947 3.832282-11.419074 2.435469-17.286712-1.483794-6.232958-5.505387-11.623735-11.031241-14.789844l-0.777713-0.446162-0.825808-0.352017c-11.447726-4.889357-24.633027-0.632403-30.668487 9.904581L637.84415 93.001137c-33.717939-13.038968-69.515237-19.638269-106.624413-19.638269-37.109176 0-72.907497 6.599302-106.624413 19.638269l-34.062793-62.438051-0.155543-0.278339c-6.03546-10.534937-19.219737-14.790868-30.668487-9.902534l-0.823761 0.352017-0.777713 0.445138c-11.133571 6.378268-14.96176 20.726044-8.597819 32.074509l32.744775 60.412928c-36.069497 21.059642-66.491367 49.691749-88.573291 83.504856-25.703405 39.35738-39.288818 84.656075-39.288818 130.99752l0 15.349593 553.081651 0 0-15.349593c0-46.298466-13.551644-91.589998-39.189557-130.978077C746.290047 163.401534 716.028836 134.777613 680.167071 113.703645zM285.668205 312.818565c5.640464-74.748425 52.200896-142.500505 124.348076-179.356924l11.641131-5.947456 2.297322-1.019213c33.541931-14.885012 69.63087-22.431895 107.265002-22.431895 37.634132 0 73.723072 7.546883 107.263979 22.431895l2.873444 1.27504 11.029194 5.67321c71.830979 36.944424 118.188796 104.70162 123.809817 179.376367L285.668205 312.819588zM256.655428 749.186004c0 20.763906 8.03807 40.237423 22.63451 54.832839 14.595416 14.59644 34.068933 22.63451 54.832839 22.63451l26.501584 0 0.50756 112.837928c0 40.536228 32.720216 73.515341 72.939219 73.515341 40.536228 0 73.515341-32.979112 73.515341-73.515341L507.58648 826.653353l47.267537 0 0 112.837928c0 40.536228 32.979112 73.515341 73.515341 73.515341s73.515341-32.979112 73.515341-73.515341L701.884698 826.653353l27.010167 0c42.397622 0 76.891228-34.751478 76.891228-77.467349L805.786093 357.713055 256.655428 357.713055 256.655428 749.186004zM287.354614 388.412241l487.73127 0L775.085884 749.186004c0 25.78834-20.721951 46.768163-46.192042 46.768163l-57.709353 0 0 143.537114c0 23.608697-19.207457 42.816155-42.816155 42.816155s-42.816155-19.207457-42.816155-42.816155L585.55218 795.954167 476.887294 795.954167l0 143.537114c0 23.608697-19.207457 42.816155-42.816155 42.816155-23.291472 0-42.240033-19.207457-42.240033-42.884716l-0.644683-143.467529-57.063647 0c-25.78834 0-46.768163-20.979824-46.768163-46.768163L287.354614 388.412241zM412.047544 189.813067c-11.856026 0-21.446451 10.16757-21.446451 22.023596 0 11.855002 9.591449 22.023596 21.446451 22.023596 12.432147 0 22.023596-10.16757 22.023596-22.023596C434.07114 199.980637 424.479691 189.813067 412.047544 189.813067zM650.39193 189.813067c-12.432147 0-22.023596 10.16757-22.023596 22.023596 0 11.855002 9.591449 22.023596 22.023596 22.023596 11.855002 0 21.446451-10.16757 21.446451-22.023596C671.838382 199.980637 662.246933 189.813067 650.39193 189.813067zM948.145381 368.139521c-13.827937-13.651928-32.273031-21.170159-51.938929-21.170159-40.219004 0-72.938196 32.738635-72.938196 72.980151l0 242.830561c0 40.536228 32.720216 73.516364 72.938196 73.516364 40.536228 0 73.516364-32.980135 73.516364-73.516364l0-242.830561C969.722816 400.276453 962.059276 381.876384 948.145381 368.139521zM939.02363 662.781098c0 23.608697-19.208481 42.817178-42.817178 42.817178-23.291472 0-42.23901-19.208481-42.23901-42.817178l0-242.830561c0-23.313985 18.948561-42.280966 42.23901-42.280966 24.009833 0 42.817178 18.571984 42.817178 42.280966L939.02363 662.781098z" p-id="8876"></path></svg>
