<?xml version="1.0" standalone="no"?><!DOCTYPE svg PUBLIC "-//W3C//DTD SVG 1.1//EN" "http://www.w3.org/Graphics/SVG/1.1/DTD/svg11.dtd"><svg t="1682919233006" class="icon" viewBox="0 0 1024 1024" version="1.1" xmlns="http://www.w3.org/2000/svg" p-id="12127" xmlns:xlink="http://www.w3.org/1999/xlink" width="128" height="128"><path d="M417.792 952.832c-3.584 0-7.68-0.512-11.264-2.048-12.8-4.608-20.992-16.896-20.48-30.72l5.632-212.992c0-7.168 2.56-13.824 7.168-19.456l145.92-182.272L346.112 686.08a32.0512 32.0512 0 0 1-35.328 5.12l-206.336-97.28c-10.752-5.12-17.92-15.872-18.432-27.648-0.512-11.776 5.632-23.04 15.872-29.184l786.944-462.336c10.752-6.144 24.064-5.632 34.304 1.024s15.36 18.944 13.824 31.232l-112.64 750.08c-1.536 9.728-7.68 18.432-15.872 23.04-8.704 4.608-18.944 5.12-28.16 1.536l-209.408-90.624-128.512 150.528c-6.144 7.168-15.36 11.264-24.576 11.264z m37.376-233.472l-3.072 111.616 84.992-99.84c9.216-10.752 24.064-14.336 36.864-8.704l193.024 83.456 88.064-583.68-6.144 6.144-393.728 491.008z m-268.288-157.696l132.096 62.464 435.712-396.288-567.808 333.824z" p-id="12128"></path></svg>
