<?xml version="1.0" standalone="no"?><!DOCTYPE svg PUBLIC "-//W3C//DTD SVG 1.1//EN" "http://www.w3.org/Graphics/SVG/1.1/DTD/svg11.dtd"><svg t="1746773740400" class="icon" viewBox="0 0 1024 1024" version="1.1" xmlns="http://www.w3.org/2000/svg" p-id="6589" xmlns:xlink="http://www.w3.org/1999/xlink" width="128" height="128"><path d="M209.888199 222.608696c-19.080745 0-38.161491 19.080745-38.161491 50.881987 0 12.720497 6.360248 25.440994 12.720497 31.801242s12.720497 12.720497 25.440994 12.720497h407.0559c12.720497 0 19.080745-6.360248 31.801243-12.720497 6.360248-6.360248 12.720497-19.080745 12.720497-31.801242s-6.360248-25.440994-12.720497-31.801242c-12.720497-12.720497-19.080745-19.080745-31.801243-19.080745H209.888199zM744.149068 477.018634c-152.645963 0-273.490683 120.84472-273.490683 273.490683s120.84472 273.490683 273.490683 273.490683 273.490683-120.84472 273.490684-273.490683-120.84472-273.490683-273.490684-273.490683z m159.006212 228.968944l-146.285715 146.285714c-6.360248 6.360248-19.080745 12.720497-31.801242 12.720497s-25.440994-6.360248-31.801242-12.720497L591.503106 763.229814c-6.360248-6.360248-12.720497-19.080745-12.720497-38.161491 0-25.440994 19.080745-44.521739 44.521739-44.521739 12.720497 0 25.440994 6.360248 31.801242 12.720497l57.242236 57.242236L826.832298 636.024845c6.360248-6.360248 19.080745-12.720497 31.801242-12.720497s25.440994 6.360248 31.801243 12.720497c25.440994 25.440994 25.440994 50.881988 12.720497 69.962733z" p-id="6590"></path><path d="M95.403727 890.434783V127.204969c0-19.080745 12.720497-31.801242 31.801242-31.801242h572.42236c19.080745 0 31.801242 12.720497 31.801242 31.801242v254.409938H826.832298V127.204969c0-69.962733-57.242236-127.204969-127.204969-127.204969H127.204969C57.242236 0 0 57.242236 0 127.204969v763.229814c0 69.962733 57.242236 127.204969 127.204969 127.204969h311.652174v-95.403727H127.204969c-19.080745 0-31.801242-19.080745-31.801242-31.801242z" p-id="6591"></path><path d="M381.614907 756.869565c25.440994 0 44.521739-19.080745 44.521739-44.521739 0-25.440994-19.080745-44.521739-44.521739-44.521739H216.248447c-25.440994 0-44.521739 19.080745-44.521739 44.521739 0 25.440994 19.080745 44.521739 44.521739 44.521739H381.614907zM438.857143 445.217391H216.248447c-25.440994 0-44.521739 19.080745-44.521739 44.521739 0 25.440994 19.080745 44.521739 44.521739 44.52174h222.608696c25.440994 0 44.521739-19.080745 44.521739-44.52174 0-25.440994-19.080745-44.521739-44.521739-44.521739z" p-id="6592"></path></svg>
