<?xml version="1.0" standalone="no"?><!DOCTYPE svg PUBLIC "-//W3C//DTD SVG 1.1//EN" "http://www.w3.org/Graphics/SVG/1.1/DTD/svg11.dtd"><svg t="1680124092870" class="icon" viewBox="0 0 1024 1024" version="1.1" xmlns="http://www.w3.org/2000/svg" p-id="5128" xmlns:xlink="http://www.w3.org/1999/xlink" width="128" height="128"><path d="M235.5 286.7c-22.5 0-41 18.4-41 41 0 22.5 18.4 41 41 41h245.8c22.5 0 41-18.4 41-41 0-22.5-18.4-41-41-41H235.5zM378.9 450.6H235.5c-22.5 0-41 18.4-41 41 0 22.5 18.4 41 41 41h143.4c22.5 0 41-18.4 41-41-0.1-22.6-18.5-41-41-41zM378.9 614.4H235.5c-22.5 0-41 18.4-41 41 0 22.5 18.4 41 41 41h143.4c22.5 0 41-18.4 41-41-0.1-22.6-18.5-41-41-41z" p-id="5129"></path><path d="M235.5 901.1h-81.9c-22.6 0-41-18.4-41-41V163.8c0-22.6 18.4-41 41-41h696.3c22.6 0 41 18.4 41 41v81.9c0 22.6 18.3 41 41 41 22.6 0 41-18.3 41-41v-81.9C972.8 96.1 917.7 41 849.9 41H153.6C85.8 41 30.7 96.1 30.7 163.8v696.3c0 67.8 55.1 122.9 122.9 122.9h81.9c22.6 0 41-18.3 41-41s-18.4-40.9-41-40.9z" p-id="5130"></path><path d="M839.5 664c37-33.5 60.4-81.8 60.4-135.7 0-101.2-82-183.2-183.2-183.2s-183.2 82-183.2 183.2c0 53.9 23.4 102.2 60.4 135.7-91 45.3-153.7 139-153.7 247.4v30.7c0 22.6 18.3 41 41 41s41-18.3 41-41v-30.7c0-107.3 87.3-194.6 194.6-194.6s194.6 87.3 194.6 194.6v30.7c0 22.6 18.3 41 41 41s41-18.3 41-41v-30.7C993.3 803 930.5 709.3 839.5 664zM716.8 427c55.8 0 101.3 45.4 101.3 101.3s-45.4 101.3-101.3 101.3-101.3-45.4-101.3-101.3S661 427 716.8 427z" p-id="5131"></path></svg>
