<?xml version="1.0" standalone="no"?><!DOCTYPE svg PUBLIC "-//W3C//DTD SVG 1.1//EN" "http://www.w3.org/Graphics/SVG/1.1/DTD/svg11.dtd"><svg t="1678371264511" class="icon" viewBox="0 0 1024 1024" version="1.1" xmlns="http://www.w3.org/2000/svg" p-id="6741" xmlns:xlink="http://www.w3.org/1999/xlink" width="128" height="128"><path d="M735.73 289.4l-1.06-109.74c-0.1-10.02-8.25-18.09-18.27-18.09H305.58c-10.16 0-18.37 8.29-18.27 18.45l1.06 109.39H81.27c-10.09 0-18.27 8.18-18.27 18.27v538.93c0 10.09 8.18 18.27 18.27 18.27h860.34c10.09 0 18.27-8.18 18.27-18.27V307.68c0-10.09-8.18-18.27-18.27-18.27H735.73z m-383.97-63.83h319.36l0.62 63.84H352.38l-0.62-63.84zM895.89 353.4v190.9H672.04v-76.15c0-10.09-8.18-18.27-18.27-18.27H370.26c-10.09 0-18.27 8.18-18.27 18.27v76.15H127V353.4h768.89zM608.04 513.89v94.04H415.99v-94.04h192.05zM127 800.88V608.31h224.99v45.35c0 10.09 8.18 18.27 18.27 18.27h283.51c10.09 0 18.27-8.18 18.27-18.27v-45.35h223.85v192.57H127z" fill="#2c2c2c" p-id="6742"></path></svg>