<?xml version="1.0" standalone="no"?><!DOCTYPE svg PUBLIC "-//W3C//DTD SVG 1.1//EN" "http://www.w3.org/Graphics/SVG/1.1/DTD/svg11.dtd"><svg t="1719977593626" class="icon" viewBox="0 0 1024 1024" version="1.1" xmlns="http://www.w3.org/2000/svg" p-id="8528" xmlns:xlink="http://www.w3.org/1999/xlink" width="128" height="128"><path d="M128 512V224c0-16 12.8-32 32-32h384c19.2 0 32 12.8 32 32v288c0 16-12.8 32-32 32h-32v64h64c35.2 0 64-28.8 64-64V192c0-35.2-28.8-64-64-64H128c-35.2 0-64 28.8-64 64v352c0 35.2 28.8 64 64 64h192v-64H160c-16 0-32-12.8-32-32z" p-id="8529"></path><path d="M896 416H704v64h160c19.2 0 32 12.8 32 32v288c0 16-12.8 32-32 32H480c-19.2 0-32-12.8-32-32V512c0-16 12.8-32 32-32h32v-64h-64c-35.2 0-64 28.8-64 64v352c0 35.2 28.8 64 64 64h448c35.2 0 64-28.8 64-64V480c0-35.2-28.8-64-64-64z" p-id="8530"></path></svg>
