<?xml version="1.0" standalone="no"?><!DOCTYPE svg PUBLIC "-//W3C//DTD SVG 1.1//EN" "http://www.w3.org/Graphics/SVG/1.1/DTD/svg11.dtd"><svg t="1706663809514" class="icon" viewBox="0 0 1024 1024" version="1.1" xmlns="http://www.w3.org/2000/svg" p-id="5640" xmlns:xlink="http://www.w3.org/1999/xlink" width="128" height="128"><path d="M511.5 958.9c-60.3 0-118.9-11.8-174-35.1-53.2-22.5-101-54.7-142.1-95.8-41-41-73.3-88.8-95.8-142.1-23.3-55.1-35.1-113.7-35.1-174s11.8-118.9 35.1-174c22.5-53.2 54.7-101 95.8-142.1 41-41 88.8-73.3 142.1-95.8 55.1-23.3 113.7-35.1 174-35.1s118.9 11.8 174 35.1c53.2 22.5 101 54.7 142.1 95.8 41 41 73.3 88.8 95.8 142.1 23.3 55.1 35.1 113.7 35.1 174s-11.8 118.9-35.1 174c-22.5 53.2-54.7 101-95.8 142.1-41 41-88.8 73.3-142.1 95.8-55.1 23.3-113.6 35.1-174 35.1z m0-838c-52.8 0-104 10.3-152.2 30.7-46.6 19.7-88.4 47.9-124.3 83.8s-64.1 77.7-83.8 124.3c-20.4 48.2-30.7 99.4-30.7 152.2s10.3 104 30.7 152.2c19.7 46.6 47.9 88.4 83.8 124.3s77.7 64.1 124.3 83.8c48.2 20.4 99.4 30.7 152.2 30.7s104-10.3 152.2-30.7c46.6-19.7 88.4-47.9 124.3-83.8 35.9-35.9 64.1-77.7 83.8-124.3 20.4-48.2 30.7-99.4 30.7-152.2s-10.3-104-30.7-152.2c-19.7-46.6-47.9-88.4-83.8-124.3-35.9-35.9-77.7-64.1-124.3-83.8-48.2-20.3-99.4-30.7-152.2-30.7z" p-id="5641"></path><path d="M652.2 423.3m-54.7 0a54.7 54.7 0 1 0 109.4 0 54.7 54.7 0 1 0-109.4 0Z" p-id="5642"></path><path d="M370.5 423.3m-54.7 0a54.7 54.7 0 1 0 109.4 0 54.7 54.7 0 1 0-109.4 0Z" p-id="5643"></path><path d="M511.5 775.9c-42.6 0-84.9-10.4-122.4-30.1-27-14.1-51.5-33.1-72.1-55.5-11.4-12.4-9.5-32 4.2-41.8 11.5-8.2 27.3-6.7 36.9 3.7 16.3 17.8 35.7 32.8 57.1 44 29.9 15.7 62.4 23.6 96.4 23.6 34 0 66.5-8 96.4-23.6 21.4-11.2 40.8-26.2 57.1-44 9.5-10.4 25.4-11.9 36.9-3.7 13.7 9.8 15.6 29.4 4.2 41.8-20.6 22.5-45.1 41.4-72.1 55.5-37.7 19.7-80 30.1-122.6 30.1z" p-id="5644"></path></svg>
