<?xml version="1.0" standalone="no"?><!DOCTYPE svg PUBLIC "-//W3C//DTD SVG 1.1//EN" "http://www.w3.org/Graphics/SVG/1.1/DTD/svg11.dtd"><svg t="1676663579314" class="icon" viewBox="0 0 1024 1024" version="1.1" xmlns="http://www.w3.org/2000/svg" p-id="7014" xmlns:xlink="http://www.w3.org/1999/xlink" width="128" height="128"><path d="M676.5 624.6c0-17.9-11.4-33.2-27.3-38.9-2.1-1-4.2-1.9-6.3-2.9 78.3-54.1 124.6-141.8 124.2-235.2C770 246.7 716.3 152.3 626.9 101s-200.3-51.3-289.6 0c-89.4 51.3-143 145.7-140.2 246.6-0.4 93.5 46 181.3 124.4 235.2-132 57.8-223.8 178-242.5 317.7-1.4 4.2-2.1 8.6-2.2 13l0.2 3.2 0.2 0.4c-0.5 14.4 7.1 28 19.9 35.3 12.8 7.4 28.6 7.4 41.4 0 12.8-7.4 20.4-20.9 19.9-35.3l-0.2-0.4h0.9c17.4-154.5 146.3-274.6 305.8-284.9 5.7 0.4 11.4 0.6 17.1 0.6 5.9 0 11.6-0.2 17.3-0.6 40 2.7 77.9 12.1 112.7 27.2 6.6 4.4 14.5 7 23.1 7 22.9 0 41.4-18.5 41.4-41.4z m-175.6-74.3c-6.1-0.2-12.3-0.4-18.4-0.4-6.1 0-12.5 0.2-18.6 0.4-106.2-10.9-186.4-98.6-185.2-202.4 2.9-106.3 91.6-191.4 200.9-192.8 109.3-1.4 200.2 81.5 205.9 187.7 5.7 106.1-75.8 197.8-184.6 207.5zM916.5 749.3h-17.4v-30.9c0.2-44.9-11.4-78.2-34.3-98.8-26.7-24-60.1-22.8-70.3-21.7h-0.2c-30.1 0-54.4 9.3-72.1 27.6-31.3 32.3-31.5 82.8-31.2 92.8v31h-19.5c-16.8 0-29.9 12.5-29.9 28.4v150.9c0 16.2 12.8 28.4 29.9 28.4h245c16.9 0 30.1-12.5 30.1-28.4V777.8c0-16-13.2-28.5-30.1-28.5zM756 704.1l0.3-2.2c2.2-19.3 18.4-33.8 37.9-33.8s35.7 14.5 37.9 33.8l0.3 2.2v43.3H756v-43.3z m126.6 186.6h-177V812h177v78.7z" fill="#666666" p-id="7015"></path></svg>