<?xml version="1.0" standalone="no"?><!DOCTYPE svg PUBLIC "-//W3C//DTD SVG 1.1//EN" "http://www.w3.org/Graphics/SVG/1.1/DTD/svg11.dtd"><svg t="1693550937592" class="icon" viewBox="0 0 1024 1024" version="1.1" xmlns="http://www.w3.org/2000/svg" p-id="10036" width="128" height="128" xmlns:xlink="http://www.w3.org/1999/xlink"><path d="M891.2 948.8l-33.6-96H699.2l-33.6 96H564.8l153.6-403.2h115.2l153.6 403.2h-96zM780.8 632l-57.6 148.8h115.2L780.8 632zM526.4 780.8L569.6 680c-14.4-9.6-28.8-19.2-38.4-28.8 72-81.6 129.6-182.4 172.8-302.4h129.6v-96H468.8l72-24c-9.6-33.6-33.6-86.4-57.6-129.6l-105.6 33.6c19.2 38.4 38.4 86.4 48 120H70.4v96h134.4c43.2 120 105.6 220.8 177.6 302.4C296 718.4 185.6 766.4 56 800c19.2 24 48 72 62.4 96 134.4-38.4 249.6-96 340.8-172.8 19.2 19.2 43.2 38.4 67.2 57.6z m-220.8-432h288C560 440 512 516.8 454.4 584 392 516.8 339.2 440 305.6 348.8z" p-id="10037"></path></svg>