<?xml version="1.0" standalone="no"?><!DOCTYPE svg PUBLIC "-//W3C//DTD SVG 1.1//EN" "http://www.w3.org/Graphics/SVG/1.1/DTD/svg11.dtd"><svg t="1746773657104" class="icon" viewBox="0 0 1044 1024" version="1.1" xmlns="http://www.w3.org/2000/svg" p-id="1520" xmlns:xlink="http://www.w3.org/1999/xlink" width="130.5" height="128"><path d="M255.488 218.112h461.824v57.856H255.488V218.112zM253.952 334.336h461.824v57.856H253.952V334.336z" p-id="1521"></path><path d="M139.776 101.888h692.736v461.824H890.88V101.888c0-31.744-25.6-57.856-57.856-57.856H139.776c-31.744 0-57.856 25.6-57.856 57.856v808.448c0 31.744 25.6 57.856 57.856 57.856h404.48v-57.856h-404.48V101.888z" p-id="1522"></path><path d="M254.976 565.248v57.856h140.288c0-19.968 3.072-39.424 8.192-57.856h-148.48zM491.008 449.536H253.952v57.856h175.616c16.384-23.04 37.376-43.008 61.44-57.856zM928.256 914.432L795.648 783.36c30.208-35.328 48.64-81.408 48.64-131.584 0-111.616-90.624-202.24-202.24-202.24s-202.24 90.624-202.24 202.24 90.624 202.24 202.24 202.24c40.448 0 77.824-11.776 109.568-32.256l135.168 133.632c11.264 11.264 29.696 11.264 40.96 0 11.776-11.264 11.776-29.696 0.512-40.96z m-430.08-262.656c0-79.872 64.512-144.384 144.384-144.384s144.384 64.512 144.384 144.384-64.512 144.384-144.384 144.384c-79.36 0-144.384-64.512-144.384-144.384z" p-id="1523"></path></svg>
