<?xml version="1.0" standalone="no"?><!DOCTYPE svg PUBLIC "-//W3C//DTD SVG 1.1//EN" "http://www.w3.org/Graphics/SVG/1.1/DTD/svg11.dtd"><svg t="1719977572681" class="icon" viewBox="0 0 1024 1024" version="1.1" xmlns="http://www.w3.org/2000/svg" p-id="7445" xmlns:xlink="http://www.w3.org/1999/xlink" width="128" height="128"><path d="M422.692 113C453.79 113 479 138.21 479 169.308v253.384C479 453.79 453.79 479 422.692 479H169.308C138.21 479 113 453.79 113 422.692V169.308C113 138.21 138.21 113 169.308 113h253.384z m-0.466 38H168.774C158.405 151 150 159.405 150 169.774v253.452c0 10.369 8.405 18.774 18.774 18.774h253.452c10.369 0 18.774-8.405 18.774-18.774V169.774c0-10.369-8.405-18.774-18.774-18.774z" p-id="7446"></path><path d="M184.487 259.452l98.531 99.98a18.543 18.543 0 0 0 26.495 0c7.316-7.424 7.316-19.46 0-26.884l-98.531-99.98a18.543 18.543 0 0 0-26.495 0c-7.316 7.424-7.316 19.46 0 26.884z"  p-id="7447"></path><path d="M308.982 359.432l98.53-99.98c7.317-7.424 7.317-19.46 0-26.884a18.543 18.543 0 0 0-26.494 0l-98.53 99.98c-7.317 7.424-7.317 19.46 0 26.884a18.543 18.543 0 0 0 26.494 0zM422.692 546C453.79 546 479 571.21 479 602.308v253.384C479 886.79 453.79 912 422.692 912H169.308C138.21 912 113 886.79 113 855.692V602.308C113 571.21 138.21 546 169.308 546h253.384z m-0.466 38H168.774C158.405 584 150 592.405 150 602.774v253.452c0 10.369 8.405 18.774 18.774 18.774h253.452c10.369 0 18.774-8.405 18.774-18.774V602.774c0-10.369-8.405-18.774-18.774-18.774zM583.793 192h309.414c10.38 0 18.793-8.283 18.793-18.5s-8.414-18.5-18.793-18.5H583.793c-10.38 0-18.793 8.283-18.793 18.5s8.414 18.5 18.793 18.5zM583.793 418h309.414c10.38 0 18.793-8.507 18.793-19s-8.414-19-18.793-19H583.793c-10.38 0-18.793 8.507-18.793 19s8.414 19 18.793 19zM583.793 645h309.414c10.38 0 18.793-8.507 18.793-19s-8.414-19-18.793-19H583.793c-10.38 0-18.793 8.507-18.793 19s8.414 19 18.793 19zM583.793 870h309.414c10.38 0 18.793-8.283 18.793-18.5s-8.414-18.5-18.793-18.5H583.793c-10.38 0-18.793 8.283-18.793 18.5s8.414 18.5 18.793 18.5z" p-id="7448"></path></svg>
