<?xml version="1.0" standalone="no"?><!DOCTYPE svg PUBLIC "-//W3C//DTD SVG 1.1//EN" "http://www.w3.org/Graphics/SVG/1.1/DTD/svg11.dtd"><svg t="1746773683107" class="icon" viewBox="0 0 1024 1024" version="1.1" xmlns="http://www.w3.org/2000/svg" p-id="3467" xmlns:xlink="http://www.w3.org/1999/xlink" width="128" height="128"><path d="M867.388235 385.505882V126.494118c0-72.282353-60.235294-126.494118-126.494117-126.494118H150.588235C84.329412 0 30.117647 60.235294 30.117647 126.494118v764.988235C30.117647 963.764706 84.329412 1024 150.588235 1024h150.588236c18.070588 0 30.117647-12.047059 30.117647-30.117647s-12.047059-30.117647-30.117647-30.117647H150.588235c-36.141176 0-60.235294-24.094118-60.235294-66.258824V126.494118C90.352941 90.352941 114.447059 60.235294 150.588235 60.235294h584.282353c36.141176 0 66.258824 24.094118 66.258824 66.258824v252.988235c0 24.094118 66.258824 24.094118 66.258823 6.023529z" p-id="3468"></path><path d="M198.776471 186.729412h427.670588c18.070588 0 30.117647 12.047059 30.117647 30.117647s-12.047059 30.117647-30.117647 30.117647H198.776471c-18.070588 0-30.117647-12.047059-30.117647-30.117647s12.047059-30.117647 30.117647-30.117647zM198.776471 373.458824h307.2c18.070588 0 30.117647 12.047059 30.117647 30.117647s-12.047059 30.117647-30.117647 30.117647H198.776471c-18.070588 0-30.117647-12.047059-30.117647-30.117647 0-12.047059 12.047059-30.117647 30.117647-30.117647zM198.776471 566.211765h186.729411c18.070588 0 30.117647 12.047059 30.117647 30.117647s-12.047059 30.117647-30.117647 30.117647H198.776471c-18.070588 0-30.117647-12.047059-30.117647-30.117647s12.047059-30.117647 30.117647-30.117647zM945.694118 716.8v114.447059h-24.094118c-12.047059 0-18.070588 6.023529-30.117647 12.047059-18.070588 12.047059-30.117647 30.117647-30.117647 54.211764 0 12.047059 0 24.094118 6.023529 30.117647l12.047059 18.070589-18.070588 12.047058-42.164706 24.094118-42.164706 24.094118-18.070588 12.047059-12.047059-18.070589c-12.047059-18.070588-30.117647-30.117647-54.211765-30.117647s-42.164706 12.047059-54.211764 30.117647l-12.047059 18.070589-18.070588-12.047059-42.164706-24.094118-42.164706-24.094118-18.070588-12.047058 6.023529-18.070589c6.023529-12.047059 6.023529-18.070588 6.023529-30.117647s-6.023529-18.070588-6.023529-30.117647c-6.023529-12.047059-12.047059-18.070588-24.094118-24.094117-6.023529-6.023529-18.070588-12.047059-30.117647-12.047059h-24.094117v-138.541177h24.094117c12.047059 0 18.070588-6.023529 30.117647-12.047058 18.070588-12.047059 30.117647-30.117647 30.117647-54.211765 0-12.047059 0-24.094118-6.023529-30.117647l-6.023529-18.070588 18.070588-12.047059 42.164706-24.094118 42.164706-24.094118 18.070588-12.047058 12.047059 18.070588c12.047059 18.070588 30.117647 30.117647 54.211764 30.117647s42.164706-12.047059 54.211765-30.117647l12.047059-18.070588 18.070588 12.047058 42.164706 24.094118 42.164706 24.094118 18.070588 12.047059-6.023529 18.070588c-6.023529 12.047059-6.023529 18.070588-6.02353 30.117647s6.023529 18.070588 6.02353 30.117647c6.023529 12.047059 12.047059 18.070588 24.094117 24.094118 6.023529 6.023529 18.070588 12.047059 30.117647 12.047058h24.094118l-6.023529 24.094118z m-48.188236 48.188235v-24.094117c-30.117647-6.023529-54.211765-30.117647-66.258823-54.211765-12.047059-24.094118-18.070588-54.211765-12.047059-84.329412l-24.094118-12.047059-24.094117-12.047058c-6.023529 6.023529-18.070588 12.047059-24.094118 18.070588-36.141176 18.070588-72.282353 18.070588-108.423529 0l-24.094118-24.094118-24.094118 12.047059-24.094117 12.047059c12.047059 60.235294-18.070588 120.470588-78.305883 138.541176v54.211765c30.117647 6.023529 54.211765 30.117647 66.258824 54.211765 18.070588 24.094118 18.070588 54.211765 12.047059 84.329411l24.094117 12.047059 24.094118 12.047059c6.023529-6.023529 18.070588-12.047059 24.094118-18.070588 36.141176-18.070588 72.282353-18.070588 108.423529 0 12.047059 6.023529 18.070588 12.047059 24.094118 18.070588l24.094117-12.047059 24.094118-12.047059c-12.047059-60.235294 18.070588-120.470588 78.305882-138.541176v-24.094118z m0 0" p-id="3469"></path><path d="M692.705882 662.588235c42.164706 0 78.305882 24.094118 96.376471 60.235294 18.070588 36.141176 6.023529 84.329412-24.094118 114.447059s-72.282353 36.141176-114.447059 24.094118c-36.141176-18.070588-60.235294-54.211765-60.235294-96.376471 0-60.235294 48.188235-102.4 102.4-102.4z m0 48.188236c-30.117647 0-54.211765 24.094118-54.211764 54.211764s24.094118 54.211765 54.211764 54.211765 54.211765-24.094118 54.211765-54.211765c0-12.047059-6.023529-24.094118-12.047059-36.141176-18.070588-12.047059-30.117647-18.070588-42.164706-18.070588z m0 0" p-id="3470"></path></svg>
