<svg width="1099.677490" height="1263.994385" viewBox="0 0 1099.68 1263.99" fill="none" xmlns="http://www.w3.org/2000/svg" xmlns:xlink="http://www.w3.org/1999/xlink">
	<desc>
			Created with Pixso.
	</desc>
	<path id="path" d="M760.822 3.35809C738.898 9.60223 716.28 22.5069 699.074 38.6032C687.002 50.1203 667.714 77.7336 656.752 99.5189C643.709 125.328 621.923 188.048 621.923 199.565C621.923 201.23 620.674 207.058 619.148 212.47C617.622 218.02 616.373 224.958 616.373 227.733C616.373 230.647 615.124 237.585 613.598 242.997C612.071 248.547 610.823 256.457 610.823 260.758C610.823 264.921 609.851 273.108 608.602 278.797C607.492 284.486 605.966 296.42 605.272 305.162C604.578 313.903 603.052 327.363 601.942 334.995C600.693 342.627 599.722 354.421 599.722 361.359C599.722 368.159 598.75 380.647 597.501 389.111C596.391 397.437 594.726 418.667 594.033 436.29C593.339 453.774 592.09 477.918 591.396 489.713C590.564 501.507 589.592 532.728 589.176 559.093C588.621 587.816 587.788 607.659 586.956 608.63C586.123 609.74 582.377 610.434 578.353 610.434C574.467 610.434 566.419 611.683 560.314 613.209C550.74 615.707 544.773 615.984 511.054 615.984C476.919 615.984 471.646 615.707 463.043 613.209C457.77 611.683 452.081 610.434 450.554 610.434C449.028 610.434 443.062 608.491 437.233 606.271C429.879 603.218 424.884 600.027 419.888 595.17C412.673 588.094 405.457 575.466 405.457 570.055C405.457 568.389 404.209 562.7 402.543 557.427C399.768 547.992 399.768 545.772 400.323 455.994C400.74 405.485 401.711 356.919 402.543 348.177C403.376 339.435 404.764 315.707 405.596 295.448C406.29 275.189 407.539 252.433 408.233 244.801C408.926 237.169 409.898 210.25 410.453 184.995C411.285 141.286 411.146 138.649 408.371 127.549C406.845 121.166 405.457 114.921 405.457 113.672C405.457 109.51 396.993 95.2172 391.026 88.9731C381.591 79.1213 361.193 71.2119 349.398 72.877C315.402 77.5949 288.344 91.887 262.396 118.945C232.146 150.166 212.581 182.775 190.795 237.863C180.666 263.672 168.871 303.635 164.015 329.445C162.349 337.77 160.129 349.01 158.88 354.421C157.77 359.694 156.244 369.13 155.689 375.236C154.995 381.341 153.746 390.36 153.052 395.356C152.22 400.351 150.832 412.839 150.139 423.108C149.306 433.376 148.057 447.807 147.225 455.022C146.531 462.238 145.421 494.153 144.588 525.79C143.894 557.427 142.646 594.338 141.813 607.659C140.98 620.98 139.731 644.43 139.038 659.694C138.344 676.067 136.956 691.47 135.569 697.159C133.904 704.93 133.487 713.533 133.626 740.452L134.042 773.893L124.052 784.994C118.64 791.1 113.09 796.928 111.841 797.899C103.515 804.837 60.777 856.872 42.4607 882.681C35.1064 892.95 17.345 926.252 11.9334 939.712C0.138794 969.545 0 970.239 0 1013.67C0.138794 1048.22 0.416321 1053.91 2.914 1064.46C4.5791 1070.98 5.82794 1077.92 5.82794 1079.86C5.82794 1081.94 6.93799 1086.8 8.46442 1090.82C9.85199 1094.85 12.0721 1101.92 13.321 1106.5C17.2063 1119.96 34.1351 1152.57 45.3746 1168.25C85.1989 1223.62 141.258 1254.56 213.968 1261.22C242.414 1263.86 284.875 1264.41 316.651 1262.61C333.025 1261.77 359.944 1260.53 376.318 1259.83C392.691 1259 410.592 1257.89 415.864 1257.06C421.276 1256.22 433.765 1254.97 443.616 1254.28C461.1 1253.03 477.89 1251.09 508.14 1246.37C516.188 1245.26 527.428 1243.74 533.117 1243.18C544.218 1242.07 560.73 1239.16 580.989 1234.72C587.927 1233.19 595.004 1232.08 596.947 1232.08C598.889 1232.08 606.382 1230.83 613.598 1229.3C644.541 1222.51 653.699 1220.42 662.858 1218.06C668.269 1216.82 675.762 1215.01 679.509 1214.18C694.356 1210.99 731.267 1200.72 745.559 1195.86C749.86 1194.48 754.301 1193.23 755.55 1193.23C758.325 1193.23 835.475 1167.83 856.567 1159.92C865.309 1156.59 878.352 1151.74 885.568 1149.1C916.373 1137.58 957.584 1117.19 981.312 1101.51C1000.04 1089.3 1026.41 1067.51 1036.82 1055.72C1087.88 997.991 1106.47 947.899 1097.04 894.199C1095.79 887.261 1094.4 878.519 1093.85 874.772C1090.1 850.767 1077.89 818.99 1060.68 788.741C1046.67 764.458 1015.86 720.61 1001.99 705.485C999.212 702.432 992.968 695.078 988.25 688.972C983.532 683.005 977.705 676.067 975.484 673.709C960.776 658.584 934.134 621.535 926.918 606.271C916.927 585.457 916.927 584.902 916.373 548.963C916.095 520.378 916.373 513.996 918.87 501.091C920.396 492.904 921.646 480.832 921.646 474.171C921.646 467.511 922.617 458.492 923.727 454.051C924.976 449.611 926.225 438.51 926.641 429.352C927.057 420.194 928.445 405.485 929.694 396.743C931.775 383.006 932.052 368.159 932.052 291.286C932.052 222.599 931.636 199.426 930.249 191.378C929.138 185.689 927.89 173.756 927.196 165.014C926.225 149.75 925.114 143.645 918.731 113.672C909.296 69.408 892.367 38.3256 868.361 20.4255C855.873 11.1288 849.351 7.93707 833.671 3.21942C823.681 0.166687 820.212 -0.110779 797.594 0.0278931C775.531 0.0278931 771.091 0.444397 760.822 3.35809ZM833.533 44.2924C859.481 56.6422 875.161 78.8438 890.286 125.19C892.228 131.018 893.893 137.678 893.893 139.759C893.893 141.841 895.004 147.946 896.53 153.219C897.917 158.631 899.583 167.928 899.999 174.033C900.554 180.139 901.803 189.435 903.052 194.847C906.243 209.556 906.243 357.058 902.913 375.236C901.664 382.035 900.138 394.939 899.444 403.681C898.75 412.423 897.224 423.385 896.114 427.964C895.004 432.543 894.032 439.204 893.893 442.673C893.893 446.281 892.645 454.051 891.118 460.018C889.592 466.123 888.343 473.339 888.343 476.114C888.343 478.889 887.372 484.856 886.262 489.296C885.013 493.737 883.486 502.34 882.792 508.445C882.099 514.551 880.572 524.541 879.462 530.647C878.214 536.752 877.381 549.518 877.242 558.954C877.242 573.107 877.797 578.241 880.85 589.204C886.678 610.573 895.42 628.056 909.851 646.789C918.176 657.612 946.9 690.637 961.886 706.734C1005.46 753.357 1039.87 811.22 1051.8 858.121C1059.85 890.036 1059.02 941.932 1050 966.354C1047.92 971.627 1045.7 977.871 1044.86 980.23C1042.64 986.335 1025.44 1014.64 1016.7 1026.58C978.815 1078.61 899.166 1123.85 769.703 1167C755.966 1171.58 741.951 1176.16 738.482 1177.13C735.013 1178.1 725.022 1181.02 716.28 1183.37C707.538 1185.87 696.576 1189.06 691.997 1190.45C684.088 1192.81 672.155 1195.86 649.675 1201.55C643.986 1202.94 632.747 1205.44 624.698 1207.1C616.651 1208.77 604.856 1211.27 598.334 1212.65C591.812 1214.04 583.07 1215.57 578.769 1216.12C574.467 1216.54 567.529 1217.93 563.505 1218.9C559.343 1220.01 553.792 1220.98 551.156 1220.98C548.519 1220.98 542.275 1221.95 537.28 1223.06C532.284 1224.17 521.461 1225.84 513.135 1226.67C504.671 1227.36 493.154 1229.03 487.465 1230.14C481.637 1231.11 473.172 1232.08 468.593 1232.08C464.153 1232.08 449.722 1233.33 436.678 1234.72C381.729 1241.1 255.319 1241.1 220.074 1234.85C211.609 1233.33 203.145 1232.08 201.341 1232.08C196.901 1232.08 174.56 1225.28 159.852 1219.59C146.808 1214.46 123.774 1201.27 114.061 1193.5C103.515 1184.9 86.0313 1166.45 77.567 1154.93C56.8917 1127.04 45.3746 1100.26 36.9102 1060.02C33.3025 1043.64 32.4699 991.886 35.5226 982.45C36.7714 978.981 38.0203 973.292 38.4366 969.823C39.2692 964.272 43.0157 951.645 46.0684 944.152C56.0592 920.285 70.2127 895.586 83.8112 878.241C88.2516 872.552 94.912 864.087 98.5198 859.508C107.4 848.269 120.86 834.115 132.377 823.847L141.952 815.383L148.196 818.297C154.995 821.627 167.622 822.459 172.756 819.823C177.197 817.464 184.829 810.11 187.049 805.808C189.824 800.535 189.547 788.047 186.355 780.831C184.551 776.53 183.58 769.453 182.886 756.132C182.192 745.864 181.221 734.624 180.527 731.155C179.833 727.686 178.584 720.193 177.891 714.504C177.336 708.815 175.809 701.322 174.699 697.853C173.45 694.245 172.201 682.728 171.646 670.101C171.23 658.306 170.12 642.349 169.426 634.717C168.594 627.085 167.761 587.677 167.345 547.02C166.651 479.028 166.79 470.98 169.426 445.864C171.091 431.017 172.34 415.476 172.34 411.591C172.34 407.566 173.589 398.27 175.115 390.776C176.642 383.145 177.891 374.125 177.891 370.518C177.891 366.91 178.862 360.527 180.111 356.364C181.36 352.201 182.886 345.68 183.441 341.933C186.078 324.727 199.121 280.462 208.279 257.567C225.347 215.106 246.577 179.584 270.721 153.497C279.463 144.2 298.196 130.324 308.741 125.606C329.417 116.309 328.723 116.448 342.183 116.448L355.226 116.448L362.026 123.941C368.825 131.434 369.38 132.683 375.069 153.913C378.122 165.569 378.26 166.818 377.983 245.078C377.844 306.965 377.289 328.751 375.624 344.292C374.375 355.393 372.849 382.451 372.155 404.514C371.461 426.577 369.935 454.329 368.825 466.123C367.437 480.277 366.743 504.005 366.604 535.642C366.604 582.82 366.604 583.792 369.935 593.505C376.04 611.267 385.753 623.894 400.185 633.052C412.534 640.822 438.344 649.287 449.861 649.287C453.33 649.287 459.851 650.397 464.43 651.507C471.369 653.45 484.551 653.866 543.524 654.421L614.43 655.115L622.756 650.119C640.379 639.851 643.015 627.501 633.024 602.802C629.971 595.309 627.474 587.955 627.474 586.428C627.474 585.041 626.225 579.352 624.837 573.94C618.316 549.796 617.067 531.063 617.067 457.104C617.067 408.122 617.622 383.7 618.871 373.848C619.842 366.216 621.23 351.23 622.062 340.545C622.756 329.861 623.866 317.65 624.698 313.487C625.392 309.324 626.364 301.831 626.919 296.836C627.335 291.841 629 281.711 630.388 274.079C631.775 266.586 633.024 258.122 633.024 255.347C633.024 252.571 633.996 247.299 635.105 243.413C636.354 239.667 637.742 233.422 638.436 229.537C642.321 206.503 656.336 161.961 667.021 139.204C690.61 88.6956 717.807 59.0009 754.023 44.0148C767.067 38.6032 776.225 37.3544 801.202 38.0482L821.599 38.6032L833.533 44.2924Z" fill-rule="evenodd" fill="#000000"/>
	<path id="path" d="M615.678 795.262C611.238 797.621 603.884 805.114 601.663 809.138C599.166 813.995 599.166 828.703 601.663 833.56C606.659 842.996 617.066 849.517 627.196 849.517C636.215 849.517 641.488 847.297 647.732 840.498C654.115 833.837 655.225 830.924 655.225 820.933C655.225 813.301 654.67 811.22 651.062 806.363C644.263 796.927 638.019 793.597 627.473 793.597C622.478 793.597 617.205 794.43 615.678 795.262Z" fill-rule="evenodd" fill="#000000"/>
	<path id="path" d="M488.02 811.914C483.579 814.273 476.086 821.766 473.866 826.067C470.536 832.589 471.23 845.632 475.392 851.877C488.158 871.164 511.331 871.025 524.514 851.738C527.427 847.714 527.705 845.632 527.289 837.029C526.872 828.426 526.317 826.345 522.571 821.766C515.217 812.746 510.36 810.249 499.953 810.249C494.958 810.249 489.546 811.081 488.02 811.914Z" fill-rule="evenodd" fill="#000000"/>
	<path id="path" d="M641.489 917.094C638.991 917.649 635.245 919.453 633.163 920.841C629.417 923.755 628.029 925.42 611.101 948.593C600.139 963.856 587.789 976.9 579.463 982.45C576.411 984.393 571.554 987.584 568.501 989.666C560.453 994.8 553.654 995.771 550.185 992.163C543.802 985.364 534.921 964.273 533.117 952.2C531.73 942.348 528.399 936.798 520.213 930.831C515.356 927.362 513.413 926.807 505.227 926.807C496.762 926.807 495.236 927.223 489.963 931.247C482.192 937.353 478.862 941.932 477.613 948.87C476.226 956.918 477.891 964.273 483.025 971.766C488.437 979.814 492.738 991.47 494.403 1002.15C497.04 1019.36 506.059 1031.71 522.155 1040.04C529.232 1043.64 530.758 1043.92 548.52 1043.92L567.252 1044.06L579.047 1038.23C586.818 1034.35 593.617 1029.77 599.028 1024.36C614.708 1009.09 662.858 957.057 665.772 952.2C670.49 944.569 671.045 937.214 667.576 930.138C662.442 919.314 652.451 914.319 641.489 917.094Z" fill-rule="evenodd" fill="#000000"/>
	<defs/>
</svg>
